<svg width="80" height="80" viewBox="0 0 80 80" fill="none" xmlns="http://www.w3.org/2000/svg">
<g clip-path="url(#clip0)">
<path d="M66.0173 7.05905C60.5424 4.91347 54.5596 5.02817 49.1708 7.38237C43.7822 9.73641 39.6329 14.0482 37.4872 19.5231C37.0165 20.7243 36.5968 21.9829 36.2246 23.2943L18.5838 15.5874L15.943 8.84927C22.7988 6.62681 30.4242 8.34499 35.6626 13.382C36.1292 13.8307 36.8712 13.8161 37.3197 13.3495C37.7683 12.8829 37.7538 12.1411 37.2872 11.6924C31.1082 5.75092 21.9605 3.93241 13.9824 7.05905C2.68059 11.4885 -2.91072 24.2871 1.51857 35.5891C7.3782 50.5403 23.7696 63.6552 33.0187 70.142C33.2236 70.2856 33.4581 70.3546 33.6907 70.3545C34.0598 70.3545 34.4232 70.1806 34.6512 69.8554C35.0229 69.3255 34.8946 68.5946 34.3646 68.2228C13.3197 53.4634 6.11976 40.9056 3.70103 34.7339C-0.11319 25.0016 4.3894 14.0287 13.7599 9.70265L16.4015 16.4429L9.00965 33.3623C8.75056 33.9553 9.02122 34.6463 9.61441 34.9054C9.76724 34.9722 9.92633 35.0037 10.0831 35.0037C10.5348 35.0037 10.9654 34.741 11.1576 34.3005L17.6109 19.529L21.8337 30.3041L16.3912 42.7617C16.1321 43.3548 16.4027 44.0458 16.9959 44.3049C17.1488 44.3716 17.3079 44.4032 17.4646 44.4032C17.9164 44.4032 18.3469 44.1405 18.5391 43.7L23.0433 33.3903L27.2661 44.1652L24.089 51.4378C23.8299 52.0308 24.1006 52.7219 24.6938 52.9809C24.8466 53.0477 25.0057 53.0792 25.1624 53.0792C25.6142 53.0792 26.0447 52.8166 26.2369 52.376L28.4756 47.2515L30.838 53.2794C31.0191 53.7417 31.4613 54.024 31.9295 54.024C32.0717 54.024 32.2164 53.9979 32.3569 53.9429C32.9595 53.7068 33.2565 53.0267 33.0204 52.424L30.6581 46.3961L34.4236 48.0411C34.5848 50.1534 34.81 52.3304 35.0999 54.5716C36.4841 65.2782 38.9093 73.5483 38.9336 73.6305C39.0362 73.9773 39.2931 74.2573 39.6298 74.3894C39.7678 74.4434 39.913 74.4702 40.0574 74.4702C40.2657 74.4702 40.4727 74.4147 40.6564 74.3056C40.7301 74.2617 48.1285 69.8416 56.4189 62.9265C67.6064 53.5951 75.0293 44.3972 78.4815 35.5887C82.9108 24.2871 77.3195 11.4885 66.0173 7.05905ZM35.6342 25.5943C35.0363 28.1948 34.615 30.9893 34.3712 33.9727L24.0162 29.4488L19.7933 18.6739L35.6342 25.5943ZM29.4486 43.3102L25.2257 32.5351L34.2121 36.4611C34.0776 39.2888 34.0905 42.2721 34.2542 45.4097L29.4486 43.3102ZM76.299 34.7339C72.1841 45.2331 62.4161 54.8687 54.9462 61.103C48.8405 66.1988 43.2321 69.9141 40.7717 71.4759C40.0289 68.6649 38.4433 62.15 37.4247 54.2714C36.1755 44.6102 35.5512 30.8876 39.6698 20.3785C41.5871 15.4865 45.2946 11.6338 50.1095 9.53029C52.6342 8.42734 55.3046 7.87462 57.9793 7.87462C60.0244 7.87462 62.0716 8.19919 64.058 8.84692L61.4163 15.5876L44.4968 22.9793C43.9036 23.2384 43.6328 23.9294 43.8921 24.5224C44.0844 24.9628 44.5148 25.2257 44.9666 25.2257C45.1232 25.2257 45.2824 25.1941 45.4352 25.1274L60.2067 18.6741L55.9839 29.4491L43.5261 34.8917C42.9329 35.1508 42.6621 35.8418 42.9213 36.4348C43.1137 36.8754 43.5441 37.1381 43.9958 37.1381C44.1524 37.1381 44.3116 37.1065 44.4645 37.0398L54.7743 32.5356L50.5515 43.3107L43.279 46.4878C42.6858 46.7469 42.4152 47.4378 42.6743 48.031C42.8666 48.4713 43.297 48.7342 43.7488 48.7342C43.9053 48.7342 44.0646 48.7026 44.2174 48.6359L49.342 46.3972L44.942 57.6242C44.7059 58.2267 45.003 58.9068 45.6056 59.1431C45.746 59.1983 45.8906 59.2242 46.033 59.2242C46.5011 59.2242 46.9434 58.9417 47.1245 58.4796L51.5244 47.2526L53.7633 52.3773C53.9556 52.8176 54.386 53.0805 54.8378 53.0805C54.9944 53.0805 55.1536 53.0489 55.3064 52.9822C55.8996 52.7231 56.1703 52.0321 55.9112 51.439L52.7341 44.1664L56.957 33.3915L61.4611 43.7014C61.6535 44.1419 62.0838 44.4046 62.5356 44.4046C62.6922 44.4046 62.8514 44.373 63.0043 44.3063C63.5975 44.0472 63.8681 43.3562 63.609 42.7631L58.1665 30.3053L62.3893 19.5303L68.8426 34.3018C69.035 34.7423 69.4654 35.005 69.9171 35.005C70.0737 35.005 70.233 34.9734 70.3858 34.9067C70.979 34.6476 71.2496 33.9566 70.9906 33.3635L63.5989 16.4441L66.2404 9.7039C75.6107 14.0285 80.1132 25.0016 76.299 34.7339Z" fill="url(#paint0_linear)"/>
</g>
<defs>
<linearGradient id="paint0_linear" x1="0" y1="39.9997" x2="80" y2="39.9997" gradientUnits="userSpaceOnUse">
<stop stop-color="#DD5E89"/>
<stop offset="1" stop-color="#F7BB97"/>
</linearGradient>
<clipPath id="clip0">
<rect width="80" height="80" fill="white"/>
</clipPath>
</defs>
</svg>
