<svg width="40" height="40" viewBox="0 0 40 40" fill="none" xmlns="http://www.w3.org/2000/svg">
<path d="M20 0C14.6957 0 9.60859 2.09676 5.85787 5.82901C2.10714 9.56126 0 14.6233 0 19.9015C0 25.1797 2.10714 30.2417 5.85787 33.9739C9.60859 37.7062 14.6957 39.803 20 39.803C25.3043 39.803 30.3914 37.7062 34.1421 33.9739C37.8929 30.2417 40 25.1797 40 19.9015C40 14.6233 37.8929 9.56126 34.1421 5.82901C30.3914 2.09676 25.3043 0 20 0ZM31.4024 27.1537L27.2857 31.2501L20 23.9979L12.7119 31.2477L8.59524 27.1513L15.8857 19.9015L8.59762 12.6493L12.7143 8.55527L20 15.8051L27.2881 8.5529L31.4048 12.6493L24.1143 19.9015L31.4024 27.1537Z" fill="black"/>
</svg>
