<svg width="40" height="40" viewBox="0 0 40 40" fill="none" xmlns="http://www.w3.org/2000/svg">
<path d="M20 0.00341797C14.6957 0.00341797 9.60859 2.10018 5.85787 5.83243C2.10714 9.56468 0 14.6267 0 19.9049C0 25.1831 2.10714 30.2451 5.85787 33.9774C9.60859 37.7096 14.6957 39.8064 20 39.8064C25.3043 39.8064 30.3914 37.7096 34.1421 33.9774C37.8929 30.2451 40 25.1831 40 19.9049C40 14.6267 37.8929 9.56468 34.1421 5.83243C30.3914 2.10018 25.3043 0.00341797 20 0.00341797ZM31.4024 27.1571L27.2857 31.2535L20 24.0013L12.7119 31.2511L8.59524 27.1547L15.8857 19.9049L8.59762 12.6527L12.7143 8.55868L20 15.8085L27.2881 8.55632L31.4048 12.6527L24.1143 19.9049L31.4024 27.1571Z" fill="white"/>
</svg>
