<svg width="80" height="80" viewBox="0 0 80 80" fill="none" xmlns="http://www.w3.org/2000/svg">
<g clip-path="url(#clip0)">
<path d="M25.6707 40.4948C24.0931 37.9131 20.9092 36.8551 18.0998 37.9786C17.1859 38.3442 16.4688 39.0437 16.0812 39.9486C15.6935 40.8533 15.6812 41.855 16.0468 42.7689L22.6285 59.2231C22.8688 59.8239 23.5506 60.1166 24.1518 59.8759C24.7528 59.6356 25.0449 58.9536 24.8046 58.3526L18.2229 41.8984C18.0898 41.5658 18.0943 41.2012 18.2354 40.8719C18.3765 40.5426 18.6374 40.288 18.9703 40.1548C20.7145 39.4575 22.6912 40.1144 23.6707 41.717L31.0151 53.7353C33.6678 58.0759 35.0698 63.0592 35.0698 68.1461V78.8281C35.0698 79.4753 35.5945 80 36.2417 80C36.8888 80 37.4135 79.4753 37.4135 78.8281V68.1459C37.4135 62.6275 35.8926 57.2217 33.0149 52.513L25.6707 40.4948Z" fill="url(#paint0_linear)"/>
<path d="M13.277 49.917C11.8399 46.5041 11.1113 42.8958 11.1113 39.1927V11.1922C11.1113 10.457 11.7095 9.85906 12.4445 9.85906C14.5609 9.85906 16.2826 11.5809 16.2826 13.6972V33.7375C16.2826 34.3847 16.8073 34.9094 17.4544 34.9094C18.1016 34.9094 18.6263 34.3847 18.6263 33.7375V13.6972C18.6263 11.6647 17.6401 9.85859 16.1213 8.73109V7.43453C16.1213 6.69938 16.7194 6.10141 17.4544 6.10141C19.5709 6.10141 21.2927 7.82328 21.2927 9.93953V33.7375C21.2927 34.3847 21.8174 34.9094 22.4646 34.9094C23.1118 34.9094 23.6365 34.3847 23.6365 33.7375V15.0527C25.1813 15.5492 26.3027 16.9995 26.3027 18.7072V37.495C26.3027 38.1422 26.8274 38.6669 27.4746 38.6669C28.1218 38.6669 28.6465 38.1422 28.6465 37.495V18.7073C28.6465 15.6994 26.4865 13.1875 23.6365 12.6383V9.93969C23.6365 6.53094 20.8632 3.75781 17.4544 3.75781C15.427 3.75781 13.7776 5.40734 13.7776 7.43469V7.66172C13.3479 7.56687 12.9021 7.51531 12.4445 7.51531C10.417 7.51531 8.76758 9.16484 8.76758 11.1922V39.1928C8.76758 43.21 9.55805 47.1242 11.117 50.8267L17.3091 65.5331C18.2902 67.8633 18.7877 70.3267 18.7877 72.8552V78.8283C18.7877 79.4755 19.3124 80.0002 19.9596 80.0002C20.6068 80.0002 21.1315 79.4755 21.1315 78.8283V72.855C21.1315 70.0125 20.5723 67.243 19.4691 64.6234L13.277 49.917Z" fill="url(#paint1_linear)"/>
<path d="M48.6874 20.9428C48.6874 18.0884 48.2772 15.2439 47.4685 12.488C47.2861 11.8669 46.6347 11.5109 46.0141 11.6936C45.393 11.8758 45.0374 12.527 45.2197 13.148C45.3902 13.7288 45.5389 14.3141 45.6708 14.9025L41.1724 19.4008V13.697C41.1724 13.0498 40.6477 12.5252 40.0005 12.5252C39.3533 12.5252 38.8286 13.0498 38.8286 13.697V19.4006L34.3303 14.9023C35.2694 10.7219 37.1816 6.70859 40.0003 3.04391C41.2603 4.68281 42.3486 6.40344 43.2441 8.17406C43.5363 8.75172 44.2413 8.98328 44.8188 8.69094C45.3963 8.39891 45.6277 7.69391 45.3357 7.11625C44.1532 4.77797 42.6605 2.525 40.8992 0.419688C40.6764 0.15375 40.3474 0 40.0003 0C39.6533 0 39.3241 0.15375 39.1016 0.42C34.0066 6.51031 31.3135 13.6069 31.3135 20.943C31.3135 28.1459 33.9114 35.1177 38.8286 41.133V56.2828C38.8286 56.93 39.3533 57.4547 40.0005 57.4547C40.6477 57.4547 41.1724 56.93 41.1724 56.2828V41.1328C46.0892 35.1175 48.6874 28.1459 48.6874 20.9428ZM41.1722 30.4653L45.926 25.7116C45.2172 29.7367 43.6124 33.6256 41.1722 37.2205V30.4653ZM46.1524 17.7352C46.2774 18.7998 46.3436 19.8705 46.3436 20.943C46.3436 21.2963 46.3358 21.6489 46.3222 22.0009L41.1722 27.1508V22.7153L46.1524 17.7352ZM38.8285 22.7152V27.1506L33.6786 22.0008C33.665 21.6487 33.6572 21.2961 33.6572 20.9428C33.6572 19.867 33.7219 18.7964 33.8469 17.7336L38.8285 22.7152ZM34.0747 25.7114L38.8285 30.4652V37.2203C36.3883 33.6256 34.7835 29.7367 34.0747 25.7114Z" fill="url(#paint2_linear)"/>
<path d="M63.9183 39.9486C63.5306 39.0437 62.8136 38.3442 61.8998 37.9787C59.0906 36.855 55.9066 37.9133 54.3289 40.495L46.9845 52.5131C44.1069 57.2218 42.5859 62.6276 42.5859 68.1461V78.8283C42.5859 79.4754 43.1106 80.0001 43.7578 80.0001C44.405 80.0001 44.9297 79.4754 44.9297 78.8283V68.1461C44.9297 63.059 46.3319 58.0759 48.9844 53.7353L56.3289 41.717C57.3084 40.1142 59.2853 39.457 61.0294 40.1548C61.362 40.2878 61.623 40.5425 61.7641 40.8717C61.9052 41.2011 61.9097 41.5656 61.7766 41.8983L55.1948 58.3525C54.9544 58.9534 55.2467 59.6354 55.8477 59.8758C56.4486 60.1162 57.1305 59.8237 57.3709 59.2229L63.9527 42.7687C64.3183 41.855 64.3061 40.8533 63.9183 39.9486Z" fill="url(#paint3_linear)"/>
<path d="M67.5555 7.51531C67.0977 7.51531 66.6521 7.56687 66.2224 7.66172V7.43469C66.2224 5.40719 64.5729 3.75781 62.5455 3.75781C59.1368 3.75781 56.3635 6.53109 56.3635 9.93969V12.6383C53.5135 13.1877 51.3535 15.6994 51.3535 18.7073V37.4952C51.3535 38.1423 51.8782 38.667 52.5254 38.667C53.1726 38.667 53.6973 38.1423 53.6973 37.4952V18.7073C53.6973 16.9995 54.8187 15.5494 56.3635 15.0528V33.7377C56.3635 34.3848 56.8882 34.9095 57.5354 34.9095C58.1826 34.9095 58.7073 34.3848 58.7073 33.7377V9.93969C58.7073 7.82328 60.4291 6.10156 62.5455 6.10156C63.2807 6.10156 63.8787 6.69969 63.8787 7.43469V8.73125C62.3599 9.85875 61.3737 11.6648 61.3737 13.6973V33.7377C61.3737 34.3848 61.8984 34.9095 62.5455 34.9095C63.1927 34.9095 63.7174 34.3848 63.7174 33.7377V13.6972C63.7174 11.5808 65.4393 9.85906 67.5555 9.85906C68.2907 9.85906 68.8887 10.4572 68.8887 11.1922V39.1928C68.8887 42.8959 68.1599 46.5041 66.723 49.9172L60.5309 64.6236C59.4277 67.2433 58.8685 70.0127 58.8685 72.8552V78.8283C58.8685 79.4755 59.3932 80.0002 60.0404 80.0002C60.6876 80.0002 61.2123 79.4755 61.2123 78.8283V72.855C61.2123 70.3266 61.7098 67.8631 62.6909 65.533L68.883 50.8264C70.4421 47.1239 71.2324 43.2097 71.2324 39.1925V11.1922C71.2324 9.16469 69.583 7.51531 67.5555 7.51531Z" fill="url(#paint4_linear)"/>
</g>
<defs>
<linearGradient id="paint0_linear" x1="15.7812" y1="58.7664" x2="37.4135" y2="58.7664" gradientUnits="userSpaceOnUse">
<stop stop-color="#DD5E89"/>
<stop offset="1" stop-color="#F7BB97"/>
</linearGradient>
<linearGradient id="paint1_linear" x1="8.76758" y1="41.879" x2="28.6465" y2="41.879" gradientUnits="userSpaceOnUse">
<stop stop-color="#DD5E89"/>
<stop offset="1" stop-color="#F7BB97"/>
</linearGradient>
<linearGradient id="paint2_linear" x1="31.3135" y1="28.7273" x2="48.6874" y2="28.7273" gradientUnits="userSpaceOnUse">
<stop stop-color="#DD5E89"/>
<stop offset="1" stop-color="#F7BB97"/>
</linearGradient>
<linearGradient id="paint3_linear" x1="42.5859" y1="58.7664" x2="64.2183" y2="58.7664" gradientUnits="userSpaceOnUse">
<stop stop-color="#DD5E89"/>
<stop offset="1" stop-color="#F7BB97"/>
</linearGradient>
<linearGradient id="paint4_linear" x1="51.3535" y1="41.879" x2="71.2324" y2="41.879" gradientUnits="userSpaceOnUse">
<stop stop-color="#DD5E89"/>
<stop offset="1" stop-color="#F7BB97"/>
</linearGradient>
<clipPath id="clip0">
<rect width="80" height="80" fill="white"/>
</clipPath>
</defs>
</svg>
