<svg width="80" height="80" viewBox="0 0 80 80" fill="none" xmlns="http://www.w3.org/2000/svg">
<g clip-path="url(#clip0)">
<path d="M16.3267 49.5959C16.9739 49.5959 17.4986 49.0712 17.4986 48.424V31.5762C17.4986 30.929 16.9739 30.4043 16.3267 30.4043H12.7256C12.0784 30.4043 11.5537 30.929 11.5537 31.5762C11.5537 32.2234 12.0784 32.748 12.7256 32.748H15.1548V48.4238C15.1548 49.0712 15.6795 49.5959 16.3267 49.5959Z" fill="url(#paint0_linear)"/>
<path d="M56.7245 48.7775C56.8726 48.8397 57.0264 48.8691 57.1775 48.8691C57.6354 48.8691 58.0703 48.5989 58.2586 48.1503L64.8604 32.4191C65.1109 31.8223 64.8301 31.1355 64.2334 30.885C63.6365 30.6347 62.9498 30.9153 62.6993 31.512L56.0975 47.2433C55.847 47.8403 56.1278 48.527 56.7245 48.7775Z" fill="url(#paint1_linear)"/>
<path d="M60.003 34.6223C60.003 32.107 58.1686 30.0605 55.9141 30.0605C53.6596 30.0605 51.8252 32.107 51.8252 34.6223C51.8252 37.1376 53.6596 39.184 55.9141 39.184C58.1686 39.184 60.003 37.1376 60.003 34.6223ZM55.9141 36.8402C54.9518 36.8402 54.1689 35.8452 54.1689 34.6223C54.1689 33.3993 54.9519 32.4043 55.9141 32.4043C56.8763 32.4043 57.6593 33.3993 57.6593 34.6223C57.6593 35.8452 56.8763 36.8402 55.9141 36.8402Z" fill="url(#paint2_linear)"/>
<path d="M64.8301 49.9398C67.0848 49.9398 68.919 47.8934 68.919 45.3781C68.919 42.8628 67.0846 40.8164 64.8301 40.8164C62.5756 40.8164 60.7412 42.8628 60.7412 45.3781C60.7412 47.8934 62.5754 49.9398 64.8301 49.9398ZM64.8301 43.1602C65.7925 43.1602 66.5753 44.1552 66.5753 45.3781C66.5753 46.6011 65.7923 47.5961 64.8301 47.5961C63.8679 47.5961 63.085 46.6011 63.085 45.3781C63.085 44.1552 63.8678 43.1602 64.8301 43.1602Z" fill="url(#paint3_linear)"/>
<path d="M36.7666 36.1043V43.8957C36.7666 47.2282 39.4779 49.9395 42.8104 49.9395C46.143 49.9395 48.8543 47.2282 48.8543 43.8957V36.1043C48.8543 32.7718 46.143 30.0605 42.8104 30.0605C39.4779 30.0605 36.7666 32.7718 36.7666 36.1043ZM46.5105 36.1043V43.8957C46.5105 45.936 44.8507 47.5957 42.8104 47.5957C40.7702 47.5957 39.1104 45.9359 39.1104 43.8957V36.1043C39.1104 34.064 40.7702 32.4043 42.8104 32.4043C44.8507 32.4043 46.5105 34.0641 46.5105 36.1043Z" fill="url(#paint4_linear)"/>
<path d="M21.1768 36.1043V43.8957C21.1768 47.2282 23.888 49.9395 27.2205 49.9395C30.5532 49.9395 33.2644 47.2282 33.2644 43.8957V36.1043C33.2644 32.7718 30.5532 30.0605 27.2205 30.0605C23.888 30.0605 21.1768 32.7718 21.1768 36.1043ZM30.9205 36.1043V43.8957C30.9205 45.936 29.2607 47.5957 27.2204 47.5957C25.1802 47.5957 23.5204 45.9359 23.5204 43.8957V36.1043C23.5204 34.064 25.1802 32.4043 27.2204 32.4043C29.2607 32.4043 30.9205 34.0641 30.9205 36.1043Z" fill="url(#paint5_linear)"/>
<path d="M9.93945 26.1419H70.0604C70.7076 26.1419 71.2323 25.6172 71.2323 24.97C71.2323 24.3227 70.7076 23.7982 70.0604 23.7982H62.376C63.2144 22.7429 63.7173 21.4094 63.7173 19.96C63.7173 19.3127 63.1926 18.7882 62.5454 18.7882C61.8982 18.7882 61.3735 19.3127 61.3735 19.96C61.3735 22.0764 59.6516 23.7982 57.5352 23.7982H52.1019C52.4366 23.5329 52.7599 23.2493 53.0662 22.943C55.2212 20.788 56.3827 17.8747 56.2532 14.9502C56.2263 14.3438 55.7408 13.8582 55.1343 13.8313C52.2094 13.7019 49.2963 14.8633 47.1415 17.0183C46.4329 17.7269 45.826 18.5214 45.3377 19.3797C45.0177 19.9424 45.2143 20.6579 45.7769 20.9779C46.3393 21.2979 47.0549 21.1014 47.3751 20.5386C47.7596 19.8627 48.2387 19.2358 48.799 18.6755C50.2027 17.2718 52.0062 16.4047 53.8766 16.208C53.6799 18.0783 52.8129 19.8819 51.4091 21.2857C49.7398 22.9552 47.5294 23.798 45.2609 23.798H41.1718V19.2036C43.5648 16.8143 44.9293 13.4699 44.9293 9.93957C44.9293 6.22504 43.421 2.71426 40.791 0.307383C40.3432 -0.102461 39.6565 -0.102461 39.2087 0.307383C36.5787 2.7141 35.0704 6.22504 35.0704 9.93957C35.0704 10.3961 35.0932 10.8569 35.1385 11.3085C35.2029 11.9527 35.7784 12.4216 36.4212 12.358C37.0652 12.2936 37.5351 11.7194 37.4707 11.0754C37.4332 10.7008 37.4143 10.3186 37.4143 9.93957C37.4143 7.27941 38.3454 4.75363 39.9999 2.84879C41.6544 4.75363 42.5855 7.27941 42.5855 9.93957C42.5855 12.5999 41.6546 15.1254 40.0001 17.0302C39.6157 16.5875 39.2677 16.1082 38.9599 15.5969C38.6262 15.0425 37.9063 14.8635 37.3516 15.1972C36.7971 15.5311 36.6182 16.2511 36.9521 16.8057C37.4829 17.6874 38.113 18.4921 38.828 19.206V23.7979H36.1298C35.938 21.2936 34.8213 18.8744 32.9649 17.018C30.8099 14.863 27.8965 13.7018 24.9721 13.831C24.3657 13.8579 23.8801 14.3433 23.8532 14.9499C23.7237 17.8744 24.8852 20.7877 27.0402 22.9427C27.3465 23.2489 27.6696 23.5324 28.0044 23.7979H22.4646C20.3482 23.7979 18.6263 22.076 18.6263 19.9597C18.6263 19.3124 18.1016 18.7879 17.4545 18.7879C16.8073 18.7879 16.2826 19.3124 16.2826 19.9597C16.2826 21.4091 16.7852 22.7427 17.6238 23.7979H9.93945C9.29227 23.7979 8.76758 24.3224 8.76758 24.9697C8.76758 25.6171 9.29227 26.1419 9.93945 26.1419ZM26.2301 16.208C28.1004 16.4047 29.904 17.2718 31.3077 18.6755C32.7115 20.0793 33.5787 21.8827 33.7752 23.7532C31.9051 23.5564 30.1013 22.6893 28.6976 21.2857C27.2938 19.8819 26.4266 18.0783 26.2301 16.208Z" fill="url(#paint6_linear)"/>
<path d="M70.0604 53.8584H9.93945C9.29227 53.8584 8.76758 54.3831 8.76758 55.0303C8.76758 55.6776 9.29227 56.2021 9.93945 56.2021H17.6238C16.7854 57.2575 16.2826 58.5909 16.2826 60.0403C16.2826 60.6876 16.8073 61.2121 17.4545 61.2121C18.1016 61.2121 18.6263 60.6876 18.6263 60.0403C18.6263 57.9239 20.3482 56.2021 22.4646 56.2021H27.8976C27.5629 56.4675 27.2399 56.7511 26.9337 57.0573C24.7787 59.2123 23.6171 62.1256 23.7466 65.0501C23.7735 65.6565 24.259 66.1421 24.8655 66.169C25.0132 66.1756 25.1607 66.1787 25.3082 66.1787C28.0823 66.1787 30.8123 65.0281 32.8584 62.982C33.5669 62.2734 34.1738 61.4789 34.6621 60.6206C34.9821 60.0579 34.7855 59.3425 34.2229 59.0225C33.6602 58.7025 32.9449 58.8989 32.6248 59.4617C32.2402 60.1376 31.7612 60.7645 31.2009 61.3248C29.7971 62.7286 27.9937 63.5956 26.1232 63.7923C26.3199 61.922 27.187 60.1184 28.5907 58.7147C30.2507 57.0547 32.4801 56.2023 34.7009 56.2023H38.828V60.7967C36.4351 63.1861 35.0705 66.5304 35.0705 70.0607C35.0705 73.7753 36.5788 77.2861 39.2088 79.6929C39.4327 79.8976 39.7163 80.0001 39.9999 80.0001C40.2835 80.0001 40.5671 79.8976 40.791 79.6928C43.421 77.2861 44.9293 73.7751 44.9293 70.0606C44.9293 69.604 44.9065 69.1432 44.8612 68.6917C44.7968 68.0476 44.2215 67.5786 43.5785 67.6422C42.9345 67.7065 42.4646 68.2807 42.529 68.9248C42.5665 69.2993 42.5854 69.6815 42.5854 70.0606C42.5854 72.7207 41.6543 75.2465 39.9998 77.1514C38.3452 75.2465 37.4141 72.7207 37.4141 70.0606C37.4141 67.4003 38.3451 64.8748 39.9996 62.97C40.384 63.4126 40.7319 63.892 41.0398 64.4032C41.3735 64.9576 42.0935 65.1367 42.648 64.8029C43.2026 64.469 43.3815 63.749 43.0476 63.1945C42.5168 62.3128 41.8866 61.5081 41.1716 60.7942V56.2023H43.8699C44.0616 58.7065 45.1784 61.1257 47.0348 62.9822C49.081 65.0286 51.8107 66.1789 54.5849 66.1789C54.7323 66.1789 54.8801 66.1756 55.0276 66.1692C55.634 66.1423 56.1196 65.6568 56.1465 65.0503C56.276 62.1257 55.1144 59.2125 52.9594 57.0575C52.6534 56.7514 52.3304 56.4676 51.9957 56.2023H57.5351C59.6515 56.2023 61.3734 57.9242 61.3734 60.0404C61.3734 60.6878 61.898 61.2123 62.5452 61.2123C63.1924 61.2123 63.7171 60.6878 63.7171 60.0404C63.7171 58.5911 63.2144 57.2575 62.3759 56.2023H70.0602C70.7074 56.2023 71.2321 55.6778 71.2321 55.0304C71.2323 54.3832 70.7076 53.8584 70.0604 53.8584ZM53.7698 63.7923C51.8994 63.5956 50.0959 62.7286 48.6921 61.3248C47.2884 59.9211 46.4212 58.1176 46.2246 56.2471C48.0948 56.4439 49.8985 57.3111 51.3023 58.7147C52.706 60.1184 53.5732 61.922 53.7698 63.7923Z" fill="url(#paint7_linear)"/>
</g>
<defs>
<linearGradient id="paint0_linear" x1="11.5537" y1="40.0001" x2="17.4986" y2="40.0001" gradientUnits="userSpaceOnUse">
<stop stop-color="#DD5E89"/>
<stop offset="1" stop-color="#F7BB97"/>
</linearGradient>
<linearGradient id="paint1_linear" x1="56.0059" y1="39.8313" x2="64.952" y2="39.8313" gradientUnits="userSpaceOnUse">
<stop stop-color="#DD5E89"/>
<stop offset="1" stop-color="#F7BB97"/>
</linearGradient>
<linearGradient id="paint2_linear" x1="51.8252" y1="34.6223" x2="60.003" y2="34.6223" gradientUnits="userSpaceOnUse">
<stop stop-color="#DD5E89"/>
<stop offset="1" stop-color="#F7BB97"/>
</linearGradient>
<linearGradient id="paint3_linear" x1="60.7412" y1="45.3781" x2="68.919" y2="45.3781" gradientUnits="userSpaceOnUse">
<stop stop-color="#DD5E89"/>
<stop offset="1" stop-color="#F7BB97"/>
</linearGradient>
<linearGradient id="paint4_linear" x1="36.7666" y1="40" x2="48.8543" y2="40" gradientUnits="userSpaceOnUse">
<stop stop-color="#DD5E89"/>
<stop offset="1" stop-color="#F7BB97"/>
</linearGradient>
<linearGradient id="paint5_linear" x1="21.1768" y1="40" x2="33.2644" y2="40" gradientUnits="userSpaceOnUse">
<stop stop-color="#DD5E89"/>
<stop offset="1" stop-color="#F7BB97"/>
</linearGradient>
<linearGradient id="paint6_linear" x1="8.76758" y1="13.071" x2="71.2323" y2="13.071" gradientUnits="userSpaceOnUse">
<stop stop-color="#DD5E89"/>
<stop offset="1" stop-color="#F7BB97"/>
</linearGradient>
<linearGradient id="paint7_linear" x1="8.76758" y1="66.9293" x2="71.2321" y2="66.9293" gradientUnits="userSpaceOnUse">
<stop stop-color="#DD5E89"/>
<stop offset="1" stop-color="#F7BB97"/>
</linearGradient>
<clipPath id="clip0">
<rect width="80" height="80" fill="white"/>
</clipPath>
</defs>
</svg>
