<svg width="80" height="80" viewBox="0 0 80 80" fill="none" xmlns="http://www.w3.org/2000/svg">
<path d="M76.3231 23.798H63.798C63.1508 23.798 62.6261 24.3227 62.6261 24.9698C62.6261 25.617 63.1508 26.1417 63.798 26.1417H76.3231C77.0583 26.1417 77.6562 26.7398 77.6562 27.4748V52.5252C77.6562 53.2603 77.0581 53.8583 76.3231 53.8583H55.0302C54.383 53.8583 53.8583 54.383 53.8583 55.0302V76.323C53.8583 77.0581 53.2602 77.6561 52.5252 77.6561H41.1719V41.1914C45.9077 41.0994 50.6681 38.9727 54.4005 35.2403C58.4584 31.1823 60.6198 25.9095 60.3303 20.7739C60.2967 20.1786 59.8216 19.7034 59.2262 19.6698C54.0911 19.3823 48.818 21.5416 44.7598 25.5997C40.7134 29.6461 38.5534 34.9003 38.8283 40.0219V53.3091L25.8709 40.3516C25.4133 39.8939 24.6713 39.8939 24.2138 40.3516C23.7561 40.8092 23.7561 41.5512 24.2138 42.0087L30.5938 48.3891C27.652 47.8419 24.7359 46.2887 22.4109 43.9636C19.5864 41.1392 17.9012 37.4434 17.7741 33.8877C21.3297 34.015 25.0258 35.7003 27.85 38.5245C28.8583 39.533 29.7277 40.6505 30.4338 41.8464C30.7628 42.4037 31.4814 42.5888 32.0386 42.2597C32.5958 41.9306 32.7809 41.212 32.4519 40.6548C31.6456 39.2894 30.655 38.015 29.5072 36.8675C25.8739 33.2342 21.1527 31.3002 16.5487 31.5586C15.9534 31.5922 15.4783 32.0673 15.4447 32.6627C15.1853 37.2647 17.1203 41.988 20.7536 45.6211C24.1706 49.0383 28.5516 50.9531 32.8892 50.9531C32.9775 50.9531 33.0656 50.9509 33.1538 50.9494L37.3213 55.1169C38.1984 55.9941 38.7234 57.1289 38.8281 58.3506V77.6562H27.4748C26.7397 77.6562 26.1417 77.0581 26.1417 76.3231V55.0302C26.1417 54.383 25.617 53.8583 24.9698 53.8583H3.67687C2.94172 53.8583 2.34375 53.2602 2.34375 52.5252V27.4748C2.34375 26.7397 2.94187 26.1417 3.67687 26.1417H24.9697C25.6169 26.1417 26.1416 25.617 26.1416 24.9698V3.67687C26.1416 2.94172 26.7397 2.34375 27.4747 2.34375H52.525C53.2602 2.34375 53.8581 2.94187 53.8581 3.67687V16.2016C53.8581 16.8488 54.3828 17.3734 55.03 17.3734C55.6772 17.3734 56.2019 16.8488 56.2019 16.2016V3.67687C56.202 1.64953 54.5527 0 52.5252 0H27.4748C25.4473 0 23.798 1.64953 23.798 3.67687V23.7978H3.67687C1.64953 23.798 0 25.4473 0 27.4748V52.5252C0 54.5527 1.64953 56.202 3.67687 56.202H23.7978V76.323C23.7978 78.3505 25.4473 79.9998 27.4747 79.9998H52.525C54.5525 79.9998 56.2019 78.3503 56.2019 76.323V56.202H76.3228C78.3503 56.202 79.9997 54.5525 79.9997 52.5252V27.4748C80 25.4473 78.3505 23.798 76.3231 23.798ZM46.417 27.2569C49.6617 24.0123 53.9225 22.0931 58.007 21.993C57.9069 26.0775 55.9877 30.3384 52.7431 33.583C49.9784 36.3475 46.4761 38.1489 42.9736 38.6836L49.5962 32.0609C50.0539 31.6033 50.0539 30.8612 49.5962 30.4037C49.1386 29.9461 48.3966 29.9461 47.9391 30.4037L41.3164 37.0264C41.8511 33.5239 43.6525 30.0214 46.417 27.2569Z" fill="url(#paint0_linear)"/>
<defs>
<linearGradient id="paint0_linear" x1="0" y1="39.9999" x2="79.9997" y2="39.9999" gradientUnits="userSpaceOnUse">
<stop stop-color="#DD5E89"/>
<stop offset="1" stop-color="#F7BB97"/>
</linearGradient>
</defs>
</svg>
