<svg width="820" height="131" viewBox="0 0 820 131" fill="none" xmlns="http://www.w3.org/2000/svg">
<path d="M16.8436 105.31C11.5569 105.31 7.57022 104.443 4.88356 102.71C2.19689 100.977 0.810222 98.1167 0.723555 94.13C0.723555 93.2633 1.20022 92.83 2.15355 92.83C2.93356 92.83 4.10356 93.0467 5.66356 93.48C7.31022 93.8267 10.3869 94 14.8936 94C22.5202 94 29.5402 93.22 35.9536 91.66C42.3669 90.0133 47.9136 87.8467 52.5936 85.16C57.3602 82.3867 61.0436 79.31 63.6436 75.93C66.2436 72.4633 67.5436 68.8667 67.5436 65.14C67.5436 61.76 66.5036 59.0733 64.4236 57.08C62.4302 55 59.7436 53.44 56.3636 52.4C53.0702 51.2733 49.4302 50.5367 45.4436 50.19C41.5436 49.8433 37.6869 49.67 33.8736 49.67C32.2269 49.67 30.5802 49.7133 28.9336 49.8C27.2869 49.8 25.7269 49.8 24.2536 49.8C22.3469 56.3867 20.4836 63.19 18.6636 70.21C16.8436 77.23 14.9369 84.12 12.9436 90.88C10.3436 90.88 8.09022 90.1867 6.18356 88.8C4.27689 87.4133 3.32356 85.7233 3.32356 83.73C3.32356 82.95 3.45356 81.9533 3.71356 80.74C4.06022 79.44 4.53689 77.9233 5.14356 76.19C5.66355 74.5433 6.53022 71.8133 7.74356 68C9.04356 64.1867 10.5602 59.68 12.2936 54.48C14.0269 49.28 15.9336 43.82 18.0136 38.1C20.1802 32.2933 22.3902 26.6167 24.6436 21.07C26.9836 15.5233 29.2802 10.54 31.5336 6.11999C28.0669 6.89999 25.2069 7.80999 22.9536 8.85C20.7002 9.89 18.9236 10.8 17.6236 11.58C16.3236 12.36 15.3269 12.75 14.6336 12.75C14.1136 12.75 13.4202 12.4467 12.5536 11.84C11.7736 11.2333 11.0369 10.54 10.3436 9.76C9.73689 8.98 9.43356 8.28666 9.43356 7.68C14.1136 5.77333 18.9669 4.08333 23.9936 2.61C29.0202 1.13666 35.0869 0.399996 42.1936 0.399996C45.3136 0.399996 48.7369 0.659996 52.4636 1.17999C56.1902 1.61333 59.7436 2.56666 63.1236 4.04C66.5036 5.42666 69.2769 7.54999 71.4436 10.41C73.6969 13.1833 74.8236 16.91 74.8236 21.59C74.8236 25.3167 74.0002 28.5667 72.3536 31.34C70.7936 34.0267 68.6702 36.3667 65.9836 38.36C63.2969 40.2667 60.3502 41.87 57.1436 43.17C53.9369 44.3833 50.7736 45.38 47.6536 46.16C53.0269 46.8533 57.4902 47.98 61.0436 49.54C64.6836 51.0133 67.5436 52.7467 69.6236 54.74C71.7902 56.7333 73.3069 58.8133 74.1736 60.98C75.1269 63.06 75.6036 65.0967 75.6036 67.09C75.6036 72.2033 74.2602 76.7967 71.5736 80.87C68.8869 84.9433 65.3336 88.4967 60.9136 91.53C56.5802 94.5633 51.7702 97.0767 46.4836 99.07C41.2836 101.15 36.0836 102.71 30.8836 103.75C25.6836 104.79 21.0036 105.31 16.8436 105.31ZM25.5536 44.86C30.4069 44.6867 35.1736 44.1233 39.8536 43.17C44.5336 42.2167 48.7369 40.83 52.4636 39.01C56.2769 37.1033 59.3102 34.6767 61.5636 31.73C63.8169 28.6967 64.9436 24.97 64.9436 20.55C64.9436 16.39 63.8169 13.1833 61.5636 10.93C59.3102 8.67666 56.3636 7.11666 52.7236 6.25C49.0836 5.38333 45.1836 4.94999 41.0236 4.94999C40.9369 4.94999 40.8502 4.94999 40.7636 4.94999C40.6769 4.94999 40.5902 4.94999 40.5036 4.94999C37.5569 10.7567 34.8702 17.0833 32.4436 23.93C30.0169 30.69 27.7202 37.6667 25.5536 44.86ZM77.39 105.31C77.8234 104.01 79.08 101.02 81.16 96.34C83.3267 91.7467 86.1867 85.5933 89.74 77.88C93.38 70.08 97.67 60.85 102.61 50.19C107.55 39.53 113.053 27.5267 119.12 14.18C119.467 13.4867 119.727 12.75 119.9 11.97C120.16 11.19 120.29 10.4967 120.29 9.89C120.29 9.02333 120.03 8.33 119.51 7.80999C118.99 7.29 117.993 7.03 116.52 7.03C112.88 7.03 109.89 8.15666 107.55 10.41C105.297 12.5767 103.607 15.2633 102.48 18.47C101.44 21.6767 100.92 24.84 100.92 27.96C100.92 28.74 100.963 29.65 101.05 30.69C101.137 31.73 101.267 32.9 101.44 34.2C99.36 34.2 97.6267 33.5933 96.24 32.38C94.94 31.08 93.9434 29.52 93.25 27.7C92.5567 25.7933 92.21 24.0167 92.21 22.37C92.21 19.5967 92.99 16.91 94.55 14.31C96.1967 11.71 98.32 9.37 100.92 7.28999C103.52 5.12333 106.38 3.43333 109.5 2.22C112.707 1.00666 115.87 0.399996 118.99 0.399996C122.197 0.399996 124.927 1.30999 127.18 3.12999C129.433 4.86333 131.167 8.07 132.38 12.75C133.593 17.3433 134.2 23.9733 134.2 32.64C134.2 38.2733 133.983 43.9933 133.55 49.8C133.203 55.52 132.813 60.8933 132.38 65.92C131.947 70.9467 131.73 75.2367 131.73 78.79C133.463 73.6767 135.587 68.26 138.1 62.54C140.7 56.7333 143.473 51.0133 146.42 45.38C149.367 39.66 152.27 34.2867 155.13 29.26C157.99 24.2333 160.547 19.8567 162.8 16.13C165.14 12.3167 166.917 9.5 168.13 7.68C169.343 5.77333 170.427 4.34333 171.38 3.39C172.333 2.43667 173.633 1.96 175.28 1.96C176.493 1.96 178.4 2.43667 181 3.39C180.22 5.03666 179.31 7.68 178.27 11.32C177.23 14.8733 176.103 19.0333 174.89 23.8C173.59 29 172.29 34.72 170.99 40.96C169.69 47.1133 168.52 53.3533 167.48 59.68C166.44 66.0067 165.573 72.03 164.88 77.75C164.273 83.3833 163.97 88.3667 163.97 92.7C163.97 94.9533 164.057 96.73 164.23 98.03C164.49 99.33 164.793 100.457 165.14 101.41C165.573 102.45 166.05 103.75 166.57 105.31C162.843 105.31 159.983 104.747 157.99 103.62C156.083 102.493 154.783 100.673 154.09 98.16C153.483 95.7333 153.18 92.4833 153.18 88.41C153.18 78.79 154.263 68.6933 156.43 58.12C158.683 47.46 161.283 36.4967 164.23 25.23C161.803 28.6967 159.29 32.8133 156.69 37.58C154.09 42.3467 151.533 47.3733 149.02 52.66C146.507 57.9467 144.123 63.19 141.87 68.39C139.617 73.5033 137.623 78.27 135.89 82.69C134.157 87.0233 132.813 90.6633 131.86 93.61C131.08 93.87 130.517 94.0433 130.17 94.13C129.91 94.2167 129.563 94.26 129.13 94.26C126.097 94.26 124.147 92.44 123.28 88.8C122.5 85.0733 122.11 80.0033 122.11 73.59C122.11 70.21 122.153 66.6133 122.24 62.8C122.327 58.9 122.457 54.9567 122.63 50.97C122.803 46.8967 122.933 42.8667 123.02 38.88C123.107 34.8933 123.15 31.08 123.15 27.44C123.15 26.14 123.107 24.84 123.02 23.54C123.02 22.24 123.02 20.9833 123.02 19.77C116.433 35.11 110.843 48.24 106.25 59.16C101.743 69.9933 97.8867 78.8333 94.68 85.68C91.4734 92.44 88.5267 97.38 85.84 100.5C83.1534 103.707 80.3367 105.31 77.39 105.31ZM210.908 105.31C205.881 105.31 201.071 104.443 196.478 102.71C191.971 100.977 188.288 98.3333 185.428 94.78C182.568 91.2267 181.138 86.8067 181.138 81.52C181.138 76.84 182.178 73.2 184.258 70.6C186.338 67.9133 188.938 66.05 192.058 65.01C195.178 63.97 198.211 63.45 201.158 63.45C198.385 66.3967 196.261 69.43 194.788 72.55C193.401 75.67 192.708 78.66 192.708 81.52C192.708 84.4667 193.445 87.24 194.918 89.84C196.478 92.3533 198.775 94.39 201.808 95.95C204.841 97.5967 208.611 98.42 213.118 98.42C217.018 98.42 220.788 97.77 224.428 96.47C228.155 95.17 231.188 93.22 233.528 90.62C235.955 88.02 237.168 84.77 237.168 80.87C237.168 77.3167 236.128 74.2833 234.048 71.77C232.055 69.17 229.455 66.8733 226.248 64.88C223.041 62.8 219.661 60.85 216.108 59.03C212.555 57.1233 209.175 55.0867 205.968 52.92C202.761 50.7533 200.118 48.24 198.038 45.38C196.045 42.52 195.048 39.0967 195.048 35.11C195.048 31.5567 195.915 27.7867 197.648 23.8C199.468 19.7267 202.025 15.9133 205.318 12.36C208.611 8.80666 212.598 5.94666 217.278 3.78C221.958 1.52666 227.158 0.399996 232.878 0.399996C238.858 0.399996 243.061 1.65666 245.488 4.16999C247.915 6.68333 249.128 9.97666 249.128 14.05C249.128 17.2567 248.565 20.68 247.438 24.32C246.312 27.96 244.925 31.4267 243.278 34.72C241.718 38.0133 240.201 40.83 238.728 43.17C236.821 42.7367 235.391 42 234.438 40.96C233.485 39.8333 233.008 38.36 233.008 36.54C233.008 34.72 233.355 32.6833 234.048 30.43C234.828 28.1767 235.695 25.8367 236.648 23.41C237.688 20.9833 238.555 18.6433 239.248 16.39C240.028 14.05 240.418 12.0133 240.418 10.28C240.418 8.71999 239.941 7.50666 238.988 6.63999C238.121 5.77333 236.301 5.33999 233.528 5.33999C229.368 5.33999 225.555 6.25 222.088 8.07C218.621 9.89 215.588 12.1867 212.988 14.96C210.475 17.7333 208.525 20.68 207.138 23.8C205.751 26.8333 205.058 29.6067 205.058 32.12C205.058 35.24 206.055 37.9267 208.048 40.18C210.041 42.3467 212.598 44.34 215.718 46.16C218.925 47.98 222.261 49.8 225.728 51.62C229.281 53.44 232.618 55.4767 235.738 57.73C238.945 59.9833 241.545 62.67 243.538 65.79C245.532 68.91 246.528 72.7233 246.528 77.23C246.528 81.7367 245.488 85.7233 243.408 89.19C241.415 92.6567 238.685 95.56 235.218 97.9C231.752 100.327 227.895 102.147 223.648 103.36C219.488 104.66 215.241 105.31 210.908 105.31ZM261.528 75.54C262.135 73.6333 263.348 72.1167 265.168 70.99C266.988 69.8633 269.025 69.04 271.278 68.52C273.531 68 275.655 67.6967 277.648 67.61C279.641 67.4367 281.158 67.35 282.198 67.35C283.325 67.35 285.188 67.3933 287.788 67.48C290.388 67.5667 293.205 67.6533 296.238 67.74C299.271 67.8267 302.088 67.9133 304.688 68C307.288 68.0867 309.151 68.1733 310.278 68.26C309.411 70.2533 307.418 71.9433 304.298 73.33C301.265 74.63 297.971 75.28 294.418 75.28C292.598 75.28 290.258 75.15 287.398 74.89C284.538 74.63 281.461 74.5 278.168 74.5C276.001 74.5 273.748 74.5867 271.408 74.76C269.068 74.8467 266.988 74.9767 265.168 75.15C263.435 75.3233 262.221 75.4533 261.528 75.54ZM350.557 105.31C345.53 105.31 340.72 104.443 336.127 102.71C331.62 100.977 327.937 98.3333 325.077 94.78C322.217 91.2267 320.787 86.8067 320.787 81.52C320.787 76.84 321.827 73.2 323.907 70.6C325.987 67.9133 328.587 66.05 331.707 65.01C334.827 63.97 337.86 63.45 340.807 63.45C338.033 66.3967 335.91 69.43 334.437 72.55C333.05 75.67 332.357 78.66 332.357 81.52C332.357 84.4667 333.093 87.24 334.567 89.84C336.127 92.3533 338.423 94.39 341.457 95.95C344.49 97.5967 348.26 98.42 352.767 98.42C356.667 98.42 360.437 97.77 364.077 96.47C367.803 95.17 370.837 93.22 373.177 90.62C375.603 88.02 376.817 84.77 376.817 80.87C376.817 77.3167 375.777 74.2833 373.697 71.77C371.703 69.17 369.103 66.8733 365.897 64.88C362.69 62.8 359.31 60.85 355.757 59.03C352.203 57.1233 348.823 55.0867 345.617 52.92C342.41 50.7533 339.767 48.24 337.687 45.38C335.693 42.52 334.697 39.0967 334.697 35.11C334.697 31.5567 335.563 27.7867 337.297 23.8C339.117 19.7267 341.673 15.9133 344.967 12.36C348.26 8.80666 352.247 5.94666 356.927 3.78C361.607 1.52666 366.807 0.399996 372.527 0.399996C378.507 0.399996 382.71 1.65666 385.137 4.16999C387.563 6.68333 388.777 9.97666 388.777 14.05C388.777 17.2567 388.213 20.68 387.087 24.32C385.96 27.96 384.573 31.4267 382.927 34.72C381.367 38.0133 379.85 40.83 378.377 43.17C376.47 42.7367 375.04 42 374.087 40.96C373.133 39.8333 372.657 38.36 372.657 36.54C372.657 34.72 373.003 32.6833 373.697 30.43C374.477 28.1767 375.343 25.8367 376.297 23.41C377.337 20.9833 378.203 18.6433 378.897 16.39C379.677 14.05 380.067 12.0133 380.067 10.28C380.067 8.71999 379.59 7.50666 378.637 6.63999C377.77 5.77333 375.95 5.33999 373.177 5.33999C369.017 5.33999 365.203 6.25 361.737 8.07C358.27 9.89 355.237 12.1867 352.637 14.96C350.123 17.7333 348.173 20.68 346.787 23.8C345.4 26.8333 344.707 29.6067 344.707 32.12C344.707 35.24 345.703 37.9267 347.697 40.18C349.69 42.3467 352.247 44.34 355.367 46.16C358.573 47.98 361.91 49.8 365.377 51.62C368.93 53.44 372.267 55.4767 375.387 57.73C378.593 59.9833 381.193 62.67 383.187 65.79C385.18 68.91 386.177 72.7233 386.177 77.23C386.177 81.7367 385.137 85.7233 383.057 89.19C381.063 92.6567 378.333 95.56 374.867 97.9C371.4 100.327 367.543 102.147 363.297 103.36C359.137 104.66 354.89 105.31 350.557 105.31ZM405.856 99.98C402.043 99.98 398.966 98.8533 396.626 96.6C394.286 94.3467 393.116 90.9233 393.116 86.33C393.116 82.7767 393.766 78.3567 395.066 73.07C396.453 67.7833 398.186 62.3233 400.266 56.69C399.66 56.5167 398.923 56.3867 398.056 56.3C397.276 56.1267 396.496 55.8667 395.716 55.52V51.49C397.103 51.6633 398.23 51.7933 399.096 51.88C400.05 51.9667 401.003 52.0533 401.956 52.14C403.776 47.5467 405.726 43.1267 407.806 38.88C409.973 34.5467 412.096 30.69 414.176 27.31C416.343 23.93 418.38 21.2867 420.286 19.38C422.193 17.3867 423.883 16.39 425.356 16.39C426.223 16.39 427.046 16.7367 427.826 17.43C428.606 18.0367 428.996 18.9467 428.996 20.16C428.996 21.8933 428.086 24.3633 426.266 27.57C424.533 30.7767 422.366 34.5467 419.766 38.88C417.166 43.1267 414.653 47.6767 412.226 52.53C412.92 52.53 413.613 52.53 414.306 52.53C415 52.53 415.65 52.53 416.256 52.53C420.07 52.53 423.493 52.4867 426.526 52.4C429.646 52.2267 432.81 51.9667 436.016 51.62V55.91C431.25 56.3433 426.873 56.69 422.886 56.95C418.9 57.21 415.086 57.3833 411.446 57.47C411.186 57.47 410.926 57.47 410.666 57.47C410.406 57.47 410.146 57.47 409.886 57.47C408.066 61.7167 406.463 66.0933 405.076 70.6C403.776 75.02 403.126 79.3533 403.126 83.6C403.126 87.1533 403.69 89.6667 404.816 91.14C405.943 92.6133 407.72 93.35 410.146 93.35C414.48 93.35 418.9 91.4 423.406 87.5C428 83.5133 431.986 78.14 435.366 71.38L437.186 72.68C434.933 77.7933 432.116 82.43 428.736 86.59C425.443 90.75 421.846 94 417.946 96.34C414.046 98.7667 410.016 99.98 405.856 99.98ZM455.528 97.38C452.321 97.38 449.721 96.5133 447.728 94.78C445.734 93.1333 444.738 90.88 444.738 88.02C444.738 85.5933 445.344 82.9933 446.558 80.22C447.771 77.4467 448.984 74.7167 450.198 72.03C451.498 69.3433 452.148 66.96 452.148 64.88C452.148 62.8867 451.498 61.24 450.198 59.94C448.898 58.5533 447.381 57.4267 445.648 56.56C443.741 61.3267 441.574 65.9633 439.148 70.47C436.808 74.89 434.901 78.3567 433.428 80.87L431.478 77.1C432.691 74.8467 434.294 71.64 436.288 67.48C438.281 63.32 440.188 58.6833 442.008 53.57C441.141 52.7033 440.708 51.5333 440.708 50.06C440.708 47.8067 441.401 45.6833 442.788 43.69C444.174 41.6967 445.518 40.7 446.818 40.7C447.858 40.7 448.594 41.3067 449.028 42.52C449.548 43.6467 449.808 44.4267 449.808 44.86C449.808 45.2933 449.591 46.0733 449.158 47.2C448.811 48.3267 448.551 49.15 448.378 49.67C448.464 50.6233 449.201 51.5767 450.588 52.53C452.061 53.3967 453.708 54.4367 455.528 55.65C457.348 56.8633 458.951 58.38 460.338 60.2C461.724 62.02 462.418 64.3167 462.418 67.09C462.418 69.6033 461.854 72.16 460.728 74.76C459.601 77.36 458.474 79.7867 457.348 82.04C456.221 84.2933 455.658 86.2433 455.658 87.89C455.658 89.1033 455.961 89.9267 456.568 90.36C457.261 90.7067 458.041 90.88 458.908 90.88C460.988 90.88 463.154 90.2733 465.408 89.06C467.661 87.76 469.871 86.1133 472.038 84.12C474.204 82.1267 476.111 80.0467 477.758 77.88C479.404 75.6267 480.661 73.59 481.528 71.77L484.648 74.11C483.001 77.8367 480.618 81.52 477.498 85.16C474.378 88.7133 470.911 91.66 467.098 94C463.284 96.2533 459.428 97.38 455.528 97.38ZM493.784 99.72C488.237 99.72 483.947 98.2033 480.914 95.17C477.967 92.2233 476.494 88.4967 476.494 83.99C476.494 80.1767 477.447 76.1467 479.354 71.9C481.347 67.5667 483.991 63.5367 487.284 59.81C490.577 55.9967 494.217 52.92 498.204 50.58C502.191 48.24 506.177 47.07 510.164 47.07C512.417 47.07 514.541 47.6767 516.534 48.89C518.614 50.0167 519.654 52.3133 519.654 55.78C519.654 59.0733 518.701 62.15 516.794 65.01C514.887 67.87 512.331 70.4267 509.124 72.68C505.917 74.9333 502.364 76.7967 498.464 78.27C494.651 79.6567 490.794 80.5667 486.894 81C486.807 81.3467 486.721 81.7367 486.634 82.17C486.634 82.5167 486.634 83.1233 486.634 83.99C486.634 84.4233 486.677 85.2033 486.764 86.33C486.937 87.37 487.327 88.4967 487.934 89.71C488.541 90.9233 489.537 91.9633 490.924 92.83C492.311 93.6967 494.217 94.13 496.644 94.13C500.284 94.13 503.924 93.1333 507.564 91.14C511.291 89.06 514.757 86.33 517.964 82.95C521.257 79.57 523.987 75.8 526.154 71.64L528.754 73.72C526.414 78.92 523.381 83.47 519.654 87.37C516.014 91.27 511.941 94.3033 507.434 96.47C503.014 98.6367 498.464 99.72 493.784 99.72ZM488.324 76.19C490.577 75.93 493.091 75.15 495.864 73.85C498.637 72.55 501.281 70.9033 503.794 68.91C506.394 66.9167 508.517 64.75 510.164 62.41C511.811 59.9833 512.634 57.5567 512.634 55.13C512.634 54.1767 512.461 53.5267 512.114 53.18C511.767 52.8333 511.204 52.66 510.424 52.66C508.431 52.66 506.351 53.3967 504.184 54.87C502.017 56.2567 499.894 58.12 497.814 60.46C495.734 62.7133 493.871 65.2267 492.224 68C490.577 70.7733 489.277 73.5033 488.324 76.19ZM534.841 99.98C531.027 99.98 527.951 98.8533 525.611 96.6C523.271 94.3467 522.101 90.9233 522.101 86.33C522.101 82.7767 522.751 78.3567 524.051 73.07C525.437 67.7833 527.171 62.3233 529.251 56.69C528.644 56.5167 527.907 56.3867 527.041 56.3C526.261 56.1267 525.481 55.8667 524.701 55.52V51.49C526.087 51.6633 527.214 51.7933 528.081 51.88C529.034 51.9667 529.987 52.0533 530.941 52.14C532.761 47.5467 534.711 43.1267 536.791 38.88C538.957 34.5467 541.081 30.69 543.161 27.31C545.327 23.93 547.364 21.2867 549.271 19.38C551.177 17.3867 552.867 16.39 554.341 16.39C555.207 16.39 556.031 16.7367 556.811 17.43C557.591 18.0367 557.981 18.9467 557.981 20.16C557.981 21.8933 557.071 24.3633 555.251 27.57C553.517 30.7767 551.351 34.5467 548.751 38.88C546.151 43.1267 543.637 47.6767 541.211 52.53C541.904 52.53 542.597 52.53 543.291 52.53C543.984 52.53 544.634 52.53 545.241 52.53C549.054 52.53 552.477 52.4867 555.511 52.4C558.631 52.2267 561.794 51.9667 565.001 51.62V55.91C560.234 56.3433 555.857 56.69 551.871 56.95C547.884 57.21 544.071 57.3833 540.431 57.47C540.171 57.47 539.911 57.47 539.651 57.47C539.391 57.47 539.131 57.47 538.871 57.47C537.051 61.7167 535.447 66.0933 534.061 70.6C532.761 75.02 532.111 79.3533 532.111 83.6C532.111 87.1533 532.674 89.6667 533.801 91.14C534.927 92.6133 536.704 93.35 539.131 93.35C543.464 93.35 547.884 91.4 552.391 87.5C556.984 83.5133 560.971 78.14 564.351 71.38L566.171 72.68C563.917 77.7933 561.101 82.43 557.721 86.59C554.427 90.75 550.831 94 546.931 96.34C543.031 98.7667 539.001 99.98 534.841 99.98ZM575.152 101.28C570.645 101.28 566.919 99.85 563.972 96.99C561.112 94.2167 559.682 89.9267 559.682 84.12C559.682 79.8733 560.505 75.7133 562.152 71.64C563.799 67.5667 566.009 63.9267 568.782 60.72C571.555 57.4267 574.632 54.8267 578.012 52.92C581.479 51.0133 584.989 50.06 588.542 50.06C592.182 50.06 594.782 50.97 596.342 52.79C597.989 54.61 598.812 56.7333 598.812 59.16C598.812 61.5867 598.205 63.97 596.992 66.31C595.865 68.5633 594.305 69.69 592.312 69.69C590.665 69.69 589.322 68.8667 588.282 67.22C589.149 66.6133 590.059 65.4867 591.012 63.84C591.965 62.1933 592.442 60.07 592.442 57.47C592.442 56.7767 592.269 56.2567 591.922 55.91C591.575 55.4767 590.925 55.26 589.972 55.26C587.805 55.26 585.509 56.2567 583.082 58.25C580.742 60.1567 578.532 62.67 576.452 65.79C574.459 68.8233 572.812 72.0733 571.512 75.54C570.299 78.92 569.692 82.04 569.692 84.9C569.692 87.3267 570.299 89.58 571.512 91.66C572.812 93.6533 575.282 94.65 578.922 94.65C582.215 94.65 585.639 93.6967 589.192 91.79C592.745 89.8833 596.082 87.24 599.202 83.86C602.322 80.3933 604.835 76.2767 606.742 71.51L609.342 73.85C607.262 79.1367 604.359 83.86 600.632 88.02C596.992 92.0933 592.919 95.3 588.412 97.64C583.992 100.067 579.572 101.28 575.152 101.28ZM609.733 98.94C607.826 98.94 606.44 97.4667 605.573 94.52C604.793 91.5733 604.403 88.15 604.403 84.25C604.403 80.2633 605.053 75.4533 606.353 69.82C607.74 64.1867 609.56 58.25 611.813 52.01C614.153 45.77 616.71 39.66 619.483 33.68C622.343 27.7 625.246 22.2833 628.193 17.43C631.226 12.49 634.086 8.54666 636.773 5.6C639.546 2.65333 641.973 1.17999 644.053 1.17999C645.873 1.17999 647.26 2.17666 648.213 4.16999C649.166 6.16333 649.643 8.24333 649.643 10.41C649.643 12.75 649.08 15.6533 647.953 19.12C646.913 22.5 645.44 26.14 643.533 30.04C641.626 33.94 639.373 37.7967 636.773 41.61C634.26 45.3367 631.486 48.76 628.453 51.88C625.506 55 622.43 57.5133 619.223 59.42C618.096 62.3667 617.186 65.14 616.493 67.74C615.886 70.2533 615.453 72.6367 615.193 74.89C614.933 77.1433 614.803 79.3533 614.803 81.52C614.803 81.9533 614.803 82.43 614.803 82.95C614.89 83.3833 614.933 83.8167 614.933 84.25C615.28 83.73 615.843 82.3867 616.623 80.22C617.403 78.0533 618.443 75.54 619.743 72.68C621.13 69.7333 622.82 66.8733 624.813 64.1C626.806 61.24 629.146 58.9 631.833 57.08C634.52 55.1733 637.596 54.22 641.063 54.22C644.01 54.22 646.306 54.9133 647.953 56.3C649.6 57.6 650.77 59.2467 651.463 61.24C652.156 63.1467 652.503 65.0967 652.503 67.09C652.503 69.8633 652.026 72.4633 651.073 74.89C650.206 77.3167 649.296 79.6133 648.343 81.78C647.476 83.86 647.043 85.8533 647.043 87.76C647.043 89.32 647.39 90.4033 648.083 91.01C648.776 91.6167 649.6 91.92 650.553 91.92C652.46 91.92 654.67 90.9667 657.183 89.06C659.783 87.1533 662.34 84.64 664.853 81.52C667.453 78.3133 669.663 74.8033 671.483 70.99L673.563 73.2C671.57 77.5333 669.23 81.52 666.543 85.16C663.856 88.8 660.91 91.7033 657.703 93.87C654.496 96.0367 651.03 97.12 647.303 97.12C644.01 97.12 641.496 96.2533 639.763 94.52C638.03 92.7867 637.163 90.62 637.163 88.02C637.163 86.2 637.466 84.2067 638.073 82.04C638.766 79.7867 639.416 77.5333 640.023 75.28C640.63 73.0267 640.933 70.99 640.933 69.17C640.933 67.09 640.456 65.66 639.503 64.88C638.636 64.1 637.553 63.71 636.253 63.71C634.086 63.71 632.136 64.5767 630.403 66.31C628.67 67.9567 627.11 70.1233 625.723 72.81C624.336 75.4967 623.036 78.3567 621.823 81.39C620.61 84.3367 619.396 87.1533 618.183 89.84C616.97 92.5267 615.67 94.6933 614.283 96.34C612.983 98.0733 611.466 98.94 609.733 98.94ZM621.953 51.1C624.206 49.1067 626.373 46.7233 628.453 43.95C630.533 41.1767 632.44 38.3167 634.173 35.37C635.993 32.3367 637.553 29.4333 638.853 26.66C640.24 23.8 641.323 21.2433 642.103 18.99C642.883 16.7367 643.316 15.0033 643.403 13.79C643.403 13.7033 643.403 13.66 643.403 13.66C643.403 13.5733 643.403 13.4867 643.403 13.4C642.883 13.4 641.756 14.4833 640.023 16.65C638.376 18.73 636.426 21.59 634.173 25.23C632.006 28.7833 629.796 32.8133 627.543 37.32C625.376 41.8267 623.513 46.42 621.953 51.1ZM678.391 97.9C674.578 97.9 671.718 96.7733 669.811 94.52C667.905 92.2667 666.951 89.5367 666.951 86.33C666.951 84.3367 667.298 81.8233 667.991 78.79C668.685 75.7567 669.638 72.5933 670.851 69.3C672.151 65.92 673.625 62.7567 675.271 59.81C676.918 56.8633 678.695 54.48 680.601 52.66C682.508 50.7533 684.415 49.8 686.321 49.8C687.361 49.8 688.271 50.1033 689.051 50.71C689.831 51.3167 690.221 52.27 690.221 53.57C690.221 54.6967 689.528 56.3867 688.141 58.64C686.841 60.8933 685.281 63.4933 683.461 66.44C681.728 69.3867 680.168 72.4633 678.781 75.67C677.481 78.79 676.831 81.78 676.831 84.64C676.831 87.4133 677.308 89.2767 678.261 90.23C679.301 91.0967 680.775 91.53 682.681 91.53C685.628 91.53 688.835 90.0567 692.301 87.11C695.768 84.1633 699.365 79.0067 703.091 71.64L705.041 73.72C702.008 81.3467 698.151 87.2833 693.471 91.53C688.791 95.7767 683.765 97.9 678.391 97.9ZM693.731 39.27C692.085 39.27 690.568 38.88 689.181 38.1C687.881 37.2333 687.231 35.9333 687.231 34.2C687.231 32.12 688.358 30.3433 690.611 28.87C692.865 27.3967 695.205 26.66 697.631 26.66C699.191 26.66 700.491 27.0067 701.531 27.7C702.658 28.3933 703.221 29.65 703.221 31.47C703.221 33.29 702.225 35.0667 700.231 36.8C698.238 38.4467 696.071 39.27 693.731 39.27ZM743.539 96.6C740.159 96.6 737.559 95.7333 735.739 94C734.006 92.3533 733.139 90.23 733.139 87.63C733.139 85.8967 733.443 84.0767 734.049 82.17C734.656 80.1767 735.263 78.1833 735.869 76.19C736.476 74.1967 736.779 72.29 736.779 70.47C736.779 68.5633 736.303 67.2633 735.349 66.57C734.483 65.79 733.443 65.4 732.229 65.4C729.629 65.4 726.943 66.4833 724.169 68.65C721.483 70.73 718.839 73.3733 716.239 76.58C713.726 79.7867 711.343 83.1233 709.089 86.59C706.836 90.0567 704.886 93.1767 703.239 95.95C701.593 95.95 700.033 95.6467 698.559 95.04C697.086 94.52 695.829 93.5667 694.789 92.18C694.876 91.7467 695.396 90.4467 696.349 88.28C697.216 86.0267 698.213 83.3833 699.339 80.35C700.466 77.23 701.463 73.98 702.329 70.6C703.196 67.22 703.629 64.1433 703.629 61.37C704.236 60.6767 705.146 59.9833 706.359 59.29C707.659 58.5967 709.003 58.25 710.389 58.25C713.423 58.25 714.939 59.55 714.939 62.15C714.939 63.19 714.723 64.75 714.289 66.83C713.943 68.8233 713.423 71.12 712.729 73.72C714.983 70.6867 717.453 67.8267 720.139 65.14C722.826 62.4533 725.599 60.2867 728.459 58.64C731.406 56.9067 734.353 56.04 737.299 56.04C741.026 56.04 743.756 57.2967 745.489 59.81C747.309 62.3233 748.219 65.0967 748.219 68.13C748.219 70.73 747.786 73.1567 746.919 75.41C746.053 77.6633 745.186 79.7867 744.319 81.78C743.539 83.7733 743.149 85.7233 743.149 87.63C743.149 89.0167 743.453 90.0133 744.059 90.62C744.753 91.14 745.489 91.4 746.269 91.4C748.349 91.4 750.516 90.4033 752.769 88.41C755.023 86.4167 757.146 83.9033 759.139 80.87C761.219 77.75 763.039 74.63 764.599 71.51L766.809 73.33C764.989 77.5767 762.909 81.4767 760.569 85.03C758.316 88.4967 755.759 91.3133 752.899 93.48C750.126 95.56 747.006 96.6 743.539 96.6ZM767.675 130.4C765.508 130.4 763.471 129.75 761.565 128.45C759.745 127.15 758.835 125.027 758.835 122.08C758.835 119.307 759.615 116.793 761.175 114.54C762.821 112.373 764.945 110.337 767.545 108.43C770.231 106.61 773.091 104.92 776.125 103.36C779.158 101.8 782.105 100.327 784.965 98.94C785.918 96.6 786.828 94.0867 787.695 91.4C788.561 88.7133 789.385 85.81 790.165 82.69C787.131 86.5033 783.925 89.6667 780.545 92.18C777.251 94.6933 773.871 95.95 770.405 95.95C766.938 95.95 764.165 94.7367 762.085 92.31C760.091 89.8833 759.095 86.6767 759.095 82.69C759.095 78.0967 760.221 73.8067 762.475 69.82C764.815 65.7467 767.805 62.15 771.445 59.03C775.085 55.8233 778.985 53.3533 783.145 51.62C787.305 49.8 791.291 48.89 795.105 48.89C797.878 48.89 799.958 49.41 801.345 50.45C802.731 51.4033 803.425 52.53 803.425 53.83C803.425 54.87 803.121 55.6933 802.515 56.3C801.908 56.9067 801.518 57.2533 801.345 57.34C800.478 56.3867 799.568 55.78 798.615 55.52C797.748 55.1733 796.708 55 795.495 55C792.115 55 788.865 55.9533 785.745 57.86C782.625 59.7667 779.851 62.2367 777.425 65.27C775.085 68.2167 773.221 71.2933 771.835 74.5C770.448 77.7067 769.755 80.61 769.755 83.21C769.755 84.9433 770.145 86.2867 770.925 87.24C771.705 88.1067 772.658 88.54 773.785 88.54C776.211 88.54 779.158 86.98 782.625 83.86C786.091 80.6533 789.428 76.7967 792.635 72.29C792.808 71.5967 792.938 70.99 793.025 70.47C793.198 69.8633 793.328 69.3 793.415 68.78C794.281 65.3133 795.321 62.7567 796.535 61.11C797.748 59.4633 799.438 58.64 801.605 58.64C802.038 58.64 802.558 58.6833 803.165 58.77C803.858 58.8567 804.595 58.9867 805.375 59.16C805.375 60.72 804.941 63.2767 804.075 66.83C803.208 70.3833 802.038 74.5433 800.565 79.31C799.091 83.99 797.445 88.8 795.625 93.74C798.311 92.6133 801.041 91.0533 803.815 89.06C806.588 86.98 809.145 84.51 811.485 81.65C813.825 78.7033 815.601 75.4533 816.815 71.9L819.155 74.24C817.768 78.2267 815.601 81.8667 812.655 85.16C809.795 88.4533 806.675 91.3133 803.295 93.74C799.915 96.08 796.795 97.9 793.935 99.2C791.595 104.92 789.038 110.12 786.265 114.8C783.578 119.567 780.675 123.337 777.555 126.11C774.521 128.97 771.228 130.4 767.675 130.4ZM767.155 124.42C768.715 124.42 770.838 122.947 773.525 120C776.298 117.053 779.288 112.07 782.495 105.05C779.288 106.61 776.341 108.213 773.655 109.86C770.968 111.507 768.801 113.24 767.155 115.06C765.508 116.88 764.685 118.787 764.685 120.78C764.685 121.907 764.901 122.773 765.335 123.38C765.855 124.073 766.461 124.42 767.155 124.42Z" fill="#CFCFCF"/>
</svg>
